<svg xmlns="http://www.w3.org/2000/svg" viewBox="0 0 24 24" fill="none" stroke="#ccc" stroke-width="1.8" stroke-linecap="round" stroke-linejoin="round">
  <!-- graduation cap -->
  <path d="M2 10 L12 4 L22 10 L12 16 Z"/>
  <path d="M6 12.5V17.5C6 17.5 8.5 20 12 20C15.5 20 18 17.5 18 17.5V12.5"/>
  <!-- book -->
  <path d="M4 19.5V4.5C4 3.67 4.67 3 5.5 3H19.5C20.33 3 21 3.67 21 4.5V19.5C21 20.33 20.33 21 19.5 21H5.5C4.67 21 4 20.33 4 19.5Z" opacity="0.4"/>
  <!-- page lines -->
  <line x1="8" y1="8" x2="16" y2="8" opacity="0.4"/>
  <line x1="8" y1="11" x2="14" y2="11" opacity="0.4"/>
  <line x1="8" y1="14" x2="15" y2="14" opacity="0.4"/>
</svg>
